<?xml version="1.0" standalone="no"?>
<svg version="1.0" xmlns="http://www.w3.org/2000/svg" viewBox="0 0 80 80">
	<g transform="translate(0.000000,80.000000) scale(0.100000,-0.100000)" fill="#000000" stroke="none">
		<path d="M74 613 c-10 -110 -10 -340 0 -415 l7 -56 77 -8 c96 -9 289 0 452 22
		69 9 126 17 128 19 18 17 26 365 9 382 -9 9 -233 73 -327 94 -127 27 -257 49
		-302 49 l-36 0 -8 -87z m226 -183 l0 -90 55 0 c52 0 55 -1 55 -25 0 -25 -1
		-25 -80 -25 l-80 0 0 115 0 115 25 0 c25 0 25 -1 25 -90z m300 72 c20 -16 21
		-19 6 -31 -13 -11 -22 -11 -42 -2 -35 16 -51 14 -74 -9 -30 -30 -27 -95 5
		-116 32 -21 75 -12 75 16 0 15 -7 20 -25 20 -18 0 -25 5 -25 20 0 17 7 20 50
		20 l50 0 0 -55 c0 -64 -14 -76 -89 -77 -89 0 -118 37 -112 145 0 17 13 41 30
		58 25 24 38 29 79 29 33 0 57 -6 72 -18z"/>
	</g>
</svg>
